<?xml version="1.0" encoding="UTF-8" standalone="no"?>
<!-- Generator: Adobe Illustrator 19.0.0, SVG Export Plug-In . SVG Version: 6.00 Build 0)  -->

<svg
   xmlns:dc="http://purl.org/dc/elements/1.1/"
   xmlns:cc="http://creativecommons.org/ns#"
   xmlns:rdf="http://www.w3.org/1999/02/22-rdf-syntax-ns#"
   xmlns:svg="http://www.w3.org/2000/svg"
   xmlns="http://www.w3.org/2000/svg"
   xmlns:sodipodi="http://sodipodi.sourceforge.net/DTD/sodipodi-0.dtd"
   xmlns:inkscape="http://www.inkscape.org/namespaces/inkscape"
   version="1.1"
   id="layer"
   x="0px"
   y="0px"
   viewBox="-153 -46 763.02441 500.0343"
   xml:space="preserve"
   sodipodi:docname="pharmamar-logo-vector.svg"
   width="763.02441"
   height="500.0343"
   inkscape:version="0.92.2 5c3e80d, 2017-08-06"><metadata
     id="metadata65"><rdf:RDF><cc:Work
         rdf:about=""><dc:format>image/svg+xml</dc:format><dc:type
           rdf:resource="http://purl.org/dc/dcmitype/StillImage" /><dc:title></dc:title></cc:Work></rdf:RDF></metadata><defs
     id="defs63" /><sodipodi:namedview
     pagecolor="#ffffff"
     bordercolor="#666666"
     borderopacity="1"
     objecttolerance="10"
     gridtolerance="10"
     guidetolerance="10"
     inkscape:pageopacity="0"
     inkscape:pageshadow="2"
     inkscape:window-width="1440"
     inkscape:window-height="757"
     id="namedview61"
     showgrid="false"
     fit-margin-top="0"
     fit-margin-left="0"
     fit-margin-right="0"
     fit-margin-bottom="0"
     inkscape:zoom="0.51189325"
     inkscape:cx="396.64001"
     inkscape:cy="162.6529"
     inkscape:window-x="0"
     inkscape:window-y="1"
     inkscape:window-maximized="1"
     inkscape:current-layer="layer" /><style
     type="text/css"
     id="style2">
	.st0{fill:#84CCD5;}
	.st1{fill:#002E53;}
</style><g
     id="g30"
     transform="translate(59.8,-71.5)"><path
       class="st0"
       d="m 102.4,315.9 10.7,9.9 147.5,-134 c 8.3,-6.5 14,1.6 6.6,7.7 L 116.8,336.4 H 97.9 c 4.4,-20.5 4.5,-20.5 4.5,-20.5"
       id="path4"
       inkscape:connector-curvature="0"
       style="fill:#84ccd5" /><path
       class="st0"
       d="m 517.5,336.4 -13.2,61.4 h -7.8 c 0,0 -123,110.1 -135.6,120.8 -12.7,10.7 -24.1,8.8 -21.3,-4.2 l 19.8,-92 7.3,-0.4 c 0,0 143.1,-127 151.3,-135 8.2,-8 11.6,-6.9 9.8,1.5 l -5.9,27.5 z"
       id="path6"
       inkscape:connector-curvature="0"
       style="fill:#84ccd5" /><path
       class="st0"
       d="m 382.1,315.9 5.9,-27.5 c 1.8,-8.4 -1.6,-9.6 -9.8,-1.5 -8.3,8.1 -151.3,135 -151.3,135 l -7.4,0.4 -19.8,92 c -2.8,13 8.7,14.9 21.3,4.2 12.7,-10.7 135.6,-120.8 135.6,-120.8 h 7.8 l 13.2,-61.4 h 18.9 L 546.8,199.5 c 7.4,-6.1 1.7,-14.2 -6.6,-7.7 l -147.5,134 z"
       id="path8"
       inkscape:connector-curvature="0"
       style="fill:#84ccd5" /><path
       class="st0"
       d="m 242.4,315.9 5.9,-27.5 c 1.8,-8.4 -1.6,-9.6 -9.8,-1.5 -8.3,8.1 -151.3,135 -151.3,135 l -7.4,0.4 -19.8,92 c -2.8,13 8.7,14.9 21.3,4.2 C 94,507.8 216.9,397.7 216.9,397.7 h 7.8 l 13.2,-61.4 h 18.9 L 407.1,199.5 c 7.4,-6.1 1.7,-14.2 -6.6,-7.7 L 253,325.8 Z"
       id="path10"
       inkscape:connector-curvature="0"
       style="fill:#84ccd5" /><polygon
       class="st1"
       points="-144.7,336 -170.8,211.9 -197,336 -212.8,336 -181.9,189.9 -160,189.9 -134.2,314 -55.7,189.9 -31.4,189.9 -62.4,336 -79,336 -52.2,212.4 -131.2,336 "
       id="polygon12"
       style="fill:#002e53" /><path
       class="st1"
       d="m 89.5,240.7 c 6.4,-8.4 15.1,-14.6 27.3,-14.6 4.4,0 8.6,0.9 12.9,1.7 l -3.7,16.6 c -4.3,-1.8 -7.4,-2.1 -12,-2.1 -20,0 -28.3,22 -32.3,41.1 L 70.8,336 H 54.4 l 18,-87.7 c 1.4,-6.6 2.3,-13 3,-19.7 h 15.5 c -0.4,4 -0.8,8.1 -1.4,12.1"
       id="path14"
       inkscape:connector-curvature="0"
       style="fill:#002e53" /><path
       class="st1"
       d="m -6.7,324.7 c 22.7,0 33.6,-19.9 36.8,-41.2 -3.8,-0.1 -7.5,-0.4 -11.3,-0.4 -18,0 -44.6,2.9 -44.6,24.4 0,11 9.1,17.2 19.1,17.2 m 29.6,-1 c -8.7,10.7 -19.9,14.7 -34.1,14.7 -16.9,0 -31.3,-12.6 -31.3,-30.7 0,-32 36.1,-38.3 61.5,-38.3 5.8,0 13.5,-0.7 13.5,-8.4 0,-13.7 -7.5,-21.3 -21.1,-21.3 h -32.5 l 1.8,-13.7 h 32.8 c 23.3,0 35.8,12.9 35.8,35.4 0,4.2 -0.8,11.9 -2.7,20.2 L 41,310 c -2.1,8.3 -3.5,17.3 -3.9,25.9 H 21.5 c 0.4,-4.1 0.8,-8.2 1.4,-12.2"
       id="path16"
       inkscape:connector-curvature="0"
       style="fill:#002e53" /><path
       class="st1"
       d="m -47.6,76.9 c 7.2,-9.4 16.6,-14.3 31.2,-15.2 19.5,0 34.2,11.1 34.2,31.7 0,7.3 -1.5,14.9 -3.1,21.9 L 2.8,171.6 H -13.4 L -1.2,112.3 C 0.2,105.6 1,101.2 1,94.3 1,82.6 -5.4,75.4 -17.9,75.4 c -21.5,0 -32.7,21.6 -37.4,43.8 l -11.5,52.4 H -83 L -51.6,25.5 h 16 z"
       id="path18"
       inkscape:connector-curvature="0"
       style="fill:#002e53" /><path
       class="st1"
       d="m -118.2,40.5 h -14 l -11.6,54.2 h 14.4 c 21.6,0 41.7,-8.5 41.7,-31.8 0,-18.6 -13.9,-22.4 -30.5,-22.4 m -42.4,131.1 h -16.8 L -146,25.5 h 25.5 c 26.8,0 49.6,5.8 49.6,37.3 0,31.9 -28.8,46.7 -57,46.7 H -147 Z"
       id="path20"
       inkscape:connector-curvature="0"
       style="fill:#002e53" /><path
       class="st1"
       d="m 55.8,160.4 c 22.7,0 33.6,-19.9 36.8,-41.2 -3.8,-0.1 -7.5,-0.4 -11.3,-0.4 -18,0 -44.6,2.9 -44.6,24.4 0,11 9.1,17.2 19.1,17.2 m 29.6,-1 c -8.7,10.7 -19.9,14.7 -34.1,14.7 -16.9,0 -31.3,-12.6 -31.3,-30.7 0,-32 36.1,-38.3 61.5,-38.3 5.8,0 13.5,-0.7 13.5,-8.4 C 95,83 87.5,75.4 73.9,75.4 H 41.4 L 43.2,61.7 H 76 c 23.3,0 35.8,12.9 35.8,35.4 0,4.2 -0.8,11.9 -2.7,20.2 l -5.5,28.4 c -2.1,8.4 -3.5,17.3 -3.9,25.9 H 84 c 0.4,-4.1 0.8,-8.2 1.4,-12.2"
       id="path22"
       inkscape:connector-curvature="0"
       style="fill:#002e53" /><path
       class="st1"
       d="m 213,77.1 c 8.9,-10.9 17.2,-15.3 30.8,-15.3 14.1,0 25,7.3 27.2,20.9 7.2,-13.1 19.2,-20.9 35.1,-20.9 18.8,0 30.9,12.3 30.9,32.1 0,4.3 -1.5,12.4 -3.1,20 l -12.1,57.8 h -16.2 l 12,-57.1 c 1.4,-6.3 2.6,-12.4 2.6,-20.1 0,-11.1 -4.7,-19.1 -16.2,-19.1 -20.3,0 -31,22.9 -34.9,41.9 L 258,171.6 h -16.2 l 12,-57.1 c 1.4,-6.3 2.6,-12.4 2.6,-20.1 0,-11.1 -4.6,-19.1 -16.2,-19.1 -20.3,0 -31,22.9 -34.9,41.9 l -11.1,54.3 H 178 l 18.2,-88.7 c 1.4,-6.1 2.3,-12.5 2.7,-18.7 h 15.6 c -0.3,4.4 -0.8,8.7 -1.5,13"
       id="path24"
       inkscape:connector-curvature="0"
       style="fill:#002e53" /><path
       class="st1"
       d="m 149.6,76.3 c 6.4,-8.4 15.1,-14.6 27.3,-14.6 4.4,0 8.6,0.9 12.8,1.7 L 186,80 c -4.3,-1.8 -7.4,-2.1 -12,-2.1 -20,0 -28.3,22 -32.3,41.1 l -10.9,52.6 h -16.4 l 18,-87.7 c 1.4,-6.6 2.3,-13.1 3,-19.7 h 15.5 c -0.4,4 -0.7,8.1 -1.3,12.1"
       id="path26"
       inkscape:connector-curvature="0"
       style="fill:#002e53" /><path
       class="st1"
       d="m 372.7,160.4 c 22.7,0 33.6,-19.9 36.8,-41.2 -3.8,-0.1 -7.5,-0.4 -11.3,-0.4 -18,0 -44.6,2.9 -44.6,24.4 0,11 9.1,17.2 19.1,17.2 m 29.5,-1 c -8.7,10.7 -19.9,14.7 -34.1,14.7 -16.9,0 -31.3,-12.6 -31.3,-30.7 0,-32 36.1,-38.3 61.5,-38.3 5.8,0 13.5,-0.7 13.5,-8.4 0,-13.7 -7.5,-21.3 -21.1,-21.3 H 358.2 L 360,61.7 h 32.8 c 23.3,0 35.8,12.9 35.8,35.4 0,4.2 -0.8,11.9 -2.7,20.2 l -5.5,28.4 c -2.1,8.4 -3.5,17.3 -3.9,25.9 h -15.6 c 0.4,-4.1 0.7,-8.2 1.3,-12.2"
       id="path28"
       inkscape:connector-curvature="0"
       style="fill:#002e53" /></g><g
     id="g58"
     transform="translate(59.8,-71.5)"><path
       class="st0"
       d="m 102.4,315.9 10.7,9.9 147.5,-134 c 8.3,-6.5 14,1.6 6.6,7.7 L 116.8,336.4 H 97.9 c 4.4,-20.5 4.5,-20.5 4.5,-20.5"
       id="path32"
       inkscape:connector-curvature="0"
       style="fill:#84ccd5" /><path
       class="st0"
       d="m 517.5,336.4 -13.2,61.4 h -7.8 c 0,0 -123,110.1 -135.6,120.8 -12.7,10.7 -24.1,8.8 -21.3,-4.2 l 19.8,-92 7.3,-0.4 c 0,0 143.1,-127 151.3,-135 8.2,-8 11.6,-6.9 9.8,1.5 l -5.9,27.5 z"
       id="path34"
       inkscape:connector-curvature="0"
       style="fill:#84ccd5" /><path
       class="st0"
       d="m 382.1,315.9 5.9,-27.5 c 1.8,-8.4 -1.6,-9.6 -9.8,-1.5 -8.3,8.1 -151.3,135 -151.3,135 l -7.4,0.4 -19.8,92 c -2.8,13 8.7,14.9 21.3,4.2 12.7,-10.7 135.6,-120.8 135.6,-120.8 h 7.8 l 13.2,-61.4 h 18.9 L 546.8,199.5 c 7.4,-6.1 1.7,-14.2 -6.6,-7.7 l -147.5,134 z"
       id="path36"
       inkscape:connector-curvature="0"
       style="fill:#84ccd5" /><path
       class="st0"
       d="m 242.4,315.9 5.9,-27.5 c 1.8,-8.4 -1.6,-9.6 -9.8,-1.5 -8.3,8.1 -151.3,135 -151.3,135 l -7.4,0.4 -19.8,92 c -2.8,13 8.7,14.9 21.3,4.2 C 94,507.8 216.9,397.7 216.9,397.7 h 7.8 l 13.2,-61.4 h 18.9 L 407.1,199.5 c 7.4,-6.1 1.7,-14.2 -6.6,-7.7 L 253,325.8 Z"
       id="path38"
       inkscape:connector-curvature="0"
       style="fill:#84ccd5" /><polygon
       class="st1"
       points="-197,336 -212.8,336 -181.9,189.9 -160,189.9 -134.2,314 -55.7,189.9 -31.4,189.9 -62.4,336 -79,336 -52.2,212.4 -131.2,336 -144.7,336 -170.8,211.9 "
       id="polygon40"
       style="fill:#002e53" /><path
       class="st1"
       d="m 89.5,240.7 c 6.4,-8.4 15.1,-14.6 27.3,-14.6 4.4,0 8.6,0.9 12.9,1.7 l -3.7,16.6 c -4.3,-1.8 -7.4,-2.1 -12,-2.1 -20,0 -28.3,22 -32.3,41.1 L 70.8,336 H 54.4 l 18,-87.7 c 1.4,-6.6 2.3,-13 3,-19.7 h 15.5 c -0.4,4 -0.8,8.1 -1.4,12.1"
       id="path42"
       inkscape:connector-curvature="0"
       style="fill:#002e53" /><path
       class="st1"
       d="m -6.7,324.7 c 22.7,0 33.6,-19.9 36.8,-41.2 -3.8,-0.1 -7.5,-0.4 -11.3,-0.4 -18,0 -44.6,2.9 -44.6,24.4 0,11 9.1,17.2 19.1,17.2 m 29.6,-1 c -8.7,10.7 -19.9,14.7 -34.1,14.7 -16.9,0 -31.3,-12.6 -31.3,-30.7 0,-32 36.1,-38.3 61.5,-38.3 5.8,0 13.5,-0.7 13.5,-8.4 0,-13.7 -7.5,-21.3 -21.1,-21.3 h -32.5 l 1.8,-13.7 h 32.8 c 23.3,0 35.8,12.9 35.8,35.4 0,4.2 -0.8,11.9 -2.7,20.2 L 41,310 c -2.1,8.3 -3.5,17.3 -3.9,25.9 H 21.5 c 0.4,-4.1 0.8,-8.2 1.4,-12.2"
       id="path44"
       inkscape:connector-curvature="0"
       style="fill:#002e53" /><path
       class="st1"
       d="m -47.6,76.9 c 7.2,-9.4 16.6,-14.3 31.2,-15.2 19.5,0 34.2,11.1 34.2,31.7 0,7.3 -1.5,14.9 -3.1,21.9 L 2.8,171.6 H -13.4 L -1.2,112.3 C 0.2,105.6 1,101.2 1,94.3 1,82.6 -5.4,75.4 -17.9,75.4 c -21.5,0 -32.7,21.6 -37.4,43.8 l -11.5,52.4 H -83 L -51.6,25.5 h 16 z"
       id="path46"
       inkscape:connector-curvature="0"
       style="fill:#002e53" /><path
       class="st1"
       d="m -118.2,40.5 h -14 l -11.6,54.2 h 14.4 c 21.6,0 41.7,-8.5 41.7,-31.8 0,-18.6 -13.9,-22.4 -30.5,-22.4 m -42.4,131.1 h -16.8 L -146,25.5 h 25.5 c 26.8,0 49.6,5.8 49.6,37.3 0,31.9 -28.8,46.7 -57,46.7 H -147 Z"
       id="path48"
       inkscape:connector-curvature="0"
       style="fill:#002e53" /><path
       class="st1"
       d="m 55.8,160.4 c 22.7,0 33.6,-19.9 36.8,-41.2 -3.8,-0.1 -7.5,-0.4 -11.3,-0.4 -18,0 -44.6,2.9 -44.6,24.4 0,11 9.1,17.2 19.1,17.2 m 29.6,-1 c -8.7,10.7 -19.9,14.7 -34.1,14.7 -16.9,0 -31.3,-12.6 -31.3,-30.7 0,-32 36.1,-38.3 61.5,-38.3 5.8,0 13.5,-0.7 13.5,-8.4 C 95,83 87.5,75.4 73.9,75.4 H 41.4 L 43.2,61.7 H 76 c 23.3,0 35.8,12.9 35.8,35.4 0,4.2 -0.8,11.9 -2.7,20.2 l -5.5,28.4 c -2.1,8.4 -3.5,17.3 -3.9,25.9 H 84 c 0.4,-4.1 0.8,-8.2 1.4,-12.2"
       id="path50"
       inkscape:connector-curvature="0"
       style="fill:#002e53" /><path
       class="st1"
       d="m 213,77.1 c 8.9,-10.9 17.2,-15.3 30.8,-15.3 14.1,0 25,7.3 27.2,20.9 7.2,-13.1 19.2,-20.9 35.1,-20.9 18.8,0 30.9,12.3 30.9,32.1 0,4.3 -1.5,12.4 -3.1,20 l -12.1,57.8 h -16.2 l 12,-57.1 c 1.4,-6.3 2.6,-12.4 2.6,-20.1 0,-11.1 -4.7,-19.1 -16.2,-19.1 -20.3,0 -31,22.9 -34.9,41.9 L 258,171.6 h -16.2 l 12,-57.1 c 1.4,-6.3 2.6,-12.4 2.6,-20.1 0,-11.1 -4.6,-19.1 -16.2,-19.1 -20.3,0 -31,22.9 -34.9,41.9 l -11.1,54.3 H 178 l 18.2,-88.7 c 1.4,-6.1 2.3,-12.5 2.7,-18.7 h 15.6 c -0.3,4.4 -0.8,8.7 -1.5,13"
       id="path52"
       inkscape:connector-curvature="0"
       style="fill:#002e53" /><path
       class="st1"
       d="m 149.6,76.3 c 6.4,-8.4 15.1,-14.6 27.3,-14.6 4.4,0 8.6,0.9 12.8,1.7 L 186,80 c -4.3,-1.8 -7.4,-2.1 -12,-2.1 -20,0 -28.3,22 -32.3,41.1 l -10.9,52.6 h -16.4 l 18,-87.7 c 1.4,-6.6 2.3,-13.1 3,-19.7 h 15.5 c -0.4,4 -0.7,8.1 -1.3,12.1"
       id="path54"
       inkscape:connector-curvature="0"
       style="fill:#002e53" /><path
       class="st1"
       d="m 372.7,160.4 c 22.7,0 33.6,-19.9 36.8,-41.2 -3.8,-0.1 -7.5,-0.4 -11.3,-0.4 -18,0 -44.6,2.9 -44.6,24.4 0,11 9.1,17.2 19.1,17.2 m 29.5,-1 c -8.7,10.7 -19.9,14.7 -34.1,14.7 -16.9,0 -31.3,-12.6 -31.3,-30.7 0,-32 36.1,-38.3 61.5,-38.3 5.8,0 13.5,-0.7 13.5,-8.4 0,-13.7 -7.5,-21.3 -21.1,-21.3 H 358.2 L 360,61.7 h 32.8 c 23.3,0 35.8,12.9 35.8,35.4 0,4.2 -0.8,11.9 -2.7,20.2 l -5.5,28.4 c -2.1,8.4 -3.5,17.3 -3.9,25.9 h -15.6 c 0.4,-4.1 0.7,-8.2 1.3,-12.2"
       id="path56"
       inkscape:connector-curvature="0"
       style="fill:#002e53" /></g></svg>